<?xml version="1.0" encoding="UTF-8"?>
<svg id="Layer_1" xmlns="http://www.w3.org/2000/svg" version="1.1" viewBox="0 0 1500 1500">
  <!-- Generator: Adobe Illustrator 29.1.0, SVG Export Plug-In . SVG Version: 2.1.0 Build 142)  -->
  <defs>
    <style>
      .st0 {
        fill: #0094ab;
      }
    </style>
  </defs>
  <g>
    <path class="st0" d="M365.86,856.78l12.88,2.26c-1.62.93-2.76,2.38-3.4,4.35-.64,1.97-.49,3.83.43,5.57.93,1.74,2.96,2.79,6.1,3.14l31.68,3.66c9.05.93,15.43,3.45,19.15,7.57,3.71,4.12,5.57,10.13,5.57,18.02,0,7.42-1.51,13.14-4.52,17.15-3.02,4.01-7.84,6.76-14.45,8.27-6.62,1.51-15.43,2.26-26.46,2.26-9.05,0-16.51-.43-22.37-1.31-5.86-.87-10.5-2.29-13.93-4.26-3.42-1.97-5.8-4.55-7.13-7.74-1.34-3.19-2-7.17-2-11.92,0-3.6.64-6.71,1.91-9.31,1.27-2.61,3.45-4.96,6.53-7.05,3.07-2.09,7.39-4.01,12.97-5.75l12.71-4.52,9.23,3.66-6.97,4.52c-2.9,2.09-5.25,3.86-7.05,5.31-1.8,1.45-3.07,2.87-3.83,4.26s-1.13,3.25-1.13,5.57c0,2.67.57,4.73,1.74,6.18,1.16,1.45,3.28,2.44,6.36,2.96,3.07.52,7.28.78,12.62.78s9.93-.27,13.06-.78c3.14-.53,5.31-1.48,6.53-2.88,1.23-1.39,1.83-3.37,1.83-5.92,0-2.21-.44-3.83-1.31-4.87s-2.32-1.83-4.36-2.35c-2.03-.52-4.85-1.02-8.44-1.48l-26.99-2.96c-4.53-.46-8.07-1.68-10.62-3.66-2.56-1.97-4.33-4.38-5.31-7.23-.99-2.84-1.25-5.71-.78-8.62.46-2.9,1.53-5.51,3.22-7.83,1.68-2.32,3.86-4.01,6.53-5.05ZM391.98,807.51c9.98,0,17.9.93,23.76,2.79,5.85,1.86,10.1,4.76,12.71,8.7,2.61,3.95,3.91,9.23,3.91,15.85s-1.28,11.57-3.83,15.58c-2.56,4.01-6.82,6.94-12.79,8.79-5.98,1.86-13.96,2.78-23.94,2.78s-17.96-.92-23.94-2.78-10.27-4.76-12.88-8.7c-2.61-3.95-3.91-9.17-3.91-15.67s1.3-11.75,3.91-15.75,6.94-6.94,12.97-8.79c6.03-1.86,14.04-2.79,24.02-2.79ZM391.8,823.35c-6.39,0-10.8.84-13.23,2.52-2.44,1.69-3.66,4.68-3.66,8.97s1.22,7.31,3.66,9.05c2.44,1.74,6.85,2.61,13.23,2.61s10.73-.88,13.06-2.61c2.32-1.74,3.48-4.76,3.48-9.05s-1.16-7.28-3.48-8.97c-2.32-1.68-6.68-2.52-13.06-2.52ZM442.29,809.77l-1.39,10.97-22.98,2.96-6.27-13.93h30.64Z"/>
    <path class="st0" d="M513.84,842.85l-.18,14.44-38.3.18c-3.13,0-5.37.76-6.7,2.26-1.34,1.51-2,3.54-2,6.09v4.18c0,2.91.81,5.14,2.44,6.7,1.62,1.57,4.24,2.35,7.84,2.35,3.02,0,6.29-.64,9.84-1.91,3.54-1.28,7.05-3.07,10.53-5.4,3.48-2.32,6.55-5.05,9.23-8.19v11.15c-1.04,1.74-2.58,3.91-4.61,6.53s-4.61,5.17-7.74,7.66c-3.14,2.5-6.79,4.61-10.97,6.35-4.18,1.74-8.93,2.61-14.28,2.61s-9.92-.93-14.1-2.78c-4.17-1.86-7.49-4.59-9.92-8.19-2.44-3.6-3.66-8.07-3.66-13.41v-8.88c0-6.84,2.32-12.18,6.97-16.01,4.64-3.83,11.02-5.74,19.15-5.74h46.48ZM490.86,807.51c7.2,0,13.29.96,18.28,2.88,4.99,1.91,8.79,5.16,11.4,9.75,2.61,4.59,3.92,10.88,3.92,18.89v56.75h-20.54l-3.66-18.63-1.74-2.61v-35.69c0-4.06-.96-7.02-2.87-8.88-1.92-1.86-5.55-2.79-10.88-2.79-4.41,0-9.92.15-16.54.43-6.62.29-13.41.67-20.37,1.13l-2.44-17.06c4.18-.81,8.99-1.51,14.44-2.09,5.45-.58,10.91-1.07,16.37-1.48,5.45-.41,10.33-.61,14.62-.61Z"/>
    <path class="st0" d="M556.5,809.77l2.61,17.06,2.61,2.26v66.68h-25.77v-86h20.54ZM591.31,807.51c7.66,0,13.49,2,17.5,6.01,4.01,4.01,6.01,9.96,6.01,17.85v64.41h-24.72v-56.41c0-3.71-.78-6.32-2.35-7.84-1.57-1.51-3.98-2.26-7.23-2.26-1.97,0-3.92.26-5.83.78-1.92.53-4.12,1.42-6.62,2.7-2.5,1.28-5.55,3.08-9.14,5.4l-1.57-14.28c5.69-5.45,11.2-9.54,16.54-12.27,5.34-2.73,11.14-4.1,17.41-4.1ZM644.93,807.51c7.78,0,13.7,2.03,17.76,6.09,4.06,4.07,6.1,9.98,6.1,17.76v64.41h-25.59v-56.41c0-3.59-.7-6.18-2.09-7.74-1.39-1.57-3.83-2.35-7.31-2.35-2.09,0-4.06.29-5.92.87-1.86.59-4.01,1.51-6.44,2.79-2.44,1.28-5.4,3.02-8.88,5.22l-1.39-14.28c5.57-5.45,11.06-9.54,16.45-12.27,5.4-2.73,11.18-4.1,17.32-4.1Z"/>
    <path class="st0" d="M721.36,807.51c14.51,0,24.92,2.47,31.25,7.4,6.32,4.94,9.49,12.27,9.49,22.02.11,7.9-1.86,13.79-5.92,17.67-4.07,3.89-11.09,5.83-21.07,5.83h-48.05v-14.45h40.91c3.94,0,6.46-.84,7.57-2.52,1.11-1.69,1.65-4.03,1.65-7.05-.11-4.06-1.3-6.88-3.56-8.44-2.27-1.57-6.07-2.35-11.41-2.35-4.76,0-8.47.64-11.14,1.92-2.67,1.27-4.53,3.71-5.57,7.31s-1.56,8.82-1.56,15.67c0,7.19.63,12.74,1.91,16.62,1.27,3.89,3.45,6.59,6.53,8.09,3.07,1.51,7.35,2.26,12.8,2.26,3.94,0,8.85-.14,14.71-.43,5.86-.29,11.75-.78,17.67-1.48l2.44,15.84c-3.37,1.63-7.2,2.91-11.49,3.83-4.3.93-8.71,1.6-13.23,2-4.53.41-8.88.61-13.06.61-10.91,0-19.7-1.6-26.38-4.78-6.67-3.19-11.49-8.1-14.44-14.71-2.96-6.62-4.44-15.09-4.44-25.42,0-11.26,1.51-20.2,4.52-26.81,3.02-6.62,7.77-11.38,14.28-14.28,6.5-2.9,15.03-4.36,25.59-4.36Z"/>
    <path d="M834.87,844.24l-.18,8.36-41.26.35c-4.42.11-7.64,1.3-9.66,3.56-2.04,2.27-3.05,5.43-3.05,9.49v7.32c0,4.75,1.23,8.3,3.66,10.61,2.44,2.32,6.15,3.49,11.14,3.49,3.71.11,7.8-.53,12.27-1.92,4.47-1.39,8.91-3.42,13.32-6.09,4.41-2.67,8.3-5.8,11.67-9.4v8.54c-1.39,1.74-3.4,3.66-6.01,5.74-2.61,2.09-5.63,4.12-9.05,6.09-3.42,1.97-7.2,3.6-11.32,4.87-4.12,1.28-8.39,1.92-12.8,1.92-4.87,0-9.11-.87-12.71-2.61-3.6-1.74-6.41-4.32-8.44-7.74-2.03-3.42-3.05-7.58-3.05-12.45v-9.75c0-6.5,1.95-11.51,5.83-15.05s9.38-5.31,16.45-5.31h43.17ZM813.63,809.25c5.8,0,10.71.84,14.71,2.52,4,1.69,7.05,4.42,9.14,8.19,2.09,3.77,3.13,8.85,3.13,15.24v60.58h-8.7l-1.74-18.46-.7-1.56v-40.56c0-5.34-1.25-9.4-3.74-12.19-2.5-2.79-7.23-4.18-14.19-4.18-5.1,0-11.03.24-17.76.7-6.73.46-13.29,1.04-19.67,1.74l-1.05-8.18c3.95-.7,8.13-1.31,12.54-1.83,4.4-.53,8.99-.99,13.75-1.39,4.75-.41,9.52-.61,14.28-.61Z"/>
    <path d="M869.68,811.34l.88,16.02.87,2.61v65.8h-10.97v-84.44h9.22ZM909.37,809.25c15.2,0,22.81,7.72,22.81,23.16v63.37h-10.97v-60.41c0-6.03-1.16-10.29-3.48-12.79-2.32-2.49-6.04-3.75-11.15-3.75-5.69,0-11.26,1.34-16.71,4.01-5.45,2.67-11.95,6.44-19.49,11.32l-.53-8.18c6.85-5.34,13.55-9.46,20.11-12.37,6.55-2.9,13.02-4.35,19.41-4.35Z"/>
    <path d="M979.71,809.25c5.57,0,11.14.76,16.71,2.26,5.57,1.51,11.02,3.72,16.36,6.62l-.53,7.31c-6.04-1.97-11.34-3.54-15.93-4.7-4.59-1.16-9.37-1.74-14.36-1.74-5.34,0-9.66,1.02-12.97,3.05-3.31,2.04-5.72,5.55-7.23,10.54-1.51,4.99-2.26,11.9-2.26,20.71s.75,15.75,2.26,20.81c1.51,5.05,3.86,8.65,7.05,10.79,3.19,2.15,7.34,3.22,12.45,3.22,3.59,0,6.88-.49,9.83-1.48,2.96-.99,6.13-2.58,9.49-4.79,3.36-2.21,7.25-4.93,11.66-8.19l.88,8.36c-5.22,4.64-10.74,8.44-16.54,11.4-5.8,2.96-11.96,4.44-18.46,4.44-10.68,0-18.34-3.62-22.98-10.88-4.64-7.25-6.96-18.42-6.96-33.51,0-10.91,1.13-19.58,3.4-26.03,2.26-6.44,5.68-11.08,10.26-13.93,4.59-2.84,10.54-4.26,17.85-4.26ZM1021.84,773.91v121.86h-8.53l-1.39-14.8-1.05-1.05v-58.32l.88-2.61c-.47-3.25-.73-6.27-.78-9.05-.06-2.78-.09-5.8-.09-9.05v-26.98h10.97Z"/>
    <path class="st0" d="M1078.41,807.51c3.14,0,6.56.15,10.27.43,3.72.29,7.46.82,11.23,1.57,3.77.76,7.23,1.83,10.36,3.22l-2.78,16.19c-4.65-.11-9.09-.23-13.32-.34-4.24-.12-8.04-.18-11.41-.18-5.22,0-9.34.69-12.36,2.09-3.02,1.39-5.2,3.86-6.53,7.4-1.33,3.54-2,8.44-2,14.71s.67,11.38,2,14.97c1.34,3.6,3.51,6.09,6.53,7.49,3.02,1.39,7.13,2.09,12.36,2.09,1.86,0,4.24-.06,7.13-.18,2.91-.12,6.04-.27,9.4-.43,3.37-.18,6.67-.5,9.92-.96l2.44,16.36c-4.64,2.09-9.92,3.6-15.84,4.52-5.92.93-11.78,1.39-17.58,1.39-10.68,0-19.19-1.48-25.51-4.44-6.33-2.95-10.88-7.74-13.67-14.36-2.79-6.62-4.17-15.43-4.17-26.46s1.41-19.85,4.26-26.46c2.84-6.62,7.46-11.38,13.84-14.28,6.39-2.9,14.86-4.36,25.42-4.36Z"/>
    <path class="st0" d="M1158.15,807.51c10.79,0,19.44,1.48,25.94,4.44,6.5,2.96,11.17,7.75,14.02,14.37,2.84,6.61,4.26,15.49,4.26,26.64s-1.42,19.67-4.26,26.29c-2.85,6.62-7.52,11.38-14.02,14.28-6.5,2.9-15.15,4.35-25.94,4.35s-19.3-1.45-25.86-4.35c-6.55-2.9-11.29-7.66-14.19-14.28-2.9-6.62-4.35-15.38-4.35-26.29s1.45-20.03,4.35-26.64c2.9-6.62,7.63-11.41,14.19-14.37,6.56-2.95,15.17-4.44,25.86-4.44ZM1158.15,826.31c-4.41,0-7.9.76-10.45,2.26-2.56,1.51-4.36,4.17-5.4,8-1.04,3.83-1.57,9.29-1.57,16.37s.53,12.36,1.57,16.19c1.04,3.83,2.84,6.47,5.4,7.92,2.55,1.46,6.04,2.18,10.45,2.18s7.89-.72,10.45-2.18c2.55-1.45,4.35-4.09,5.39-7.92,1.04-3.83,1.57-9.23,1.57-16.19s-.53-12.54-1.57-16.37c-1.04-3.83-2.84-6.5-5.39-8-2.56-1.51-6.04-2.26-10.45-2.26Z"/>
    <path class="st0" d="M1240.67,807.51c6.03,0,11.86.88,17.49,2.61,5.63,1.74,10.59,4.59,14.89,8.54l-1.74,11.83c-3.95-1.16-7.49-2.2-10.62-3.13-3.14-.93-6.79-1.39-10.97-1.39-3.6,0-6.5.64-8.71,1.91-2.21,1.28-3.83,3.77-4.87,7.49-1.04,3.72-1.56,9.23-1.56,16.54,0,6.85.49,12.04,1.48,15.59.98,3.54,2.55,5.98,4.7,7.31,2.15,1.34,4.9,2,8.27,2,3.02,0,5.63-.32,7.84-.96,2.21-.64,4.41-1.62,6.62-2.96,2.21-1.33,4.7-2.98,7.49-4.96l1.91,12.71c-3.48,4.87-8,8.96-13.58,12.27-5.57,3.3-12.42,4.96-20.54,4.96-11.03,0-18.88-3.94-23.59-11.83-4.7-7.89-7.05-19.21-7.05-33.95,0-11.49,1.19-20.45,3.57-26.89,2.38-6.44,6.01-10.99,10.88-13.67,4.87-2.67,10.91-4.01,18.11-4.01ZM1294.12,773.91v121.86h-20.37l-2.61-15.85-2.79-1.91v-56.41l1.04-2.26c-.35-3.6-.61-7.23-.78-10.88-.18-3.66-.26-7.4-.26-11.23v-23.32h25.77Z"/>
    <path class="st0" d="M1347.21,807.51c14.51,0,24.92,2.47,31.25,7.4,6.32,4.94,9.49,12.27,9.49,22.02.11,7.9-1.86,13.79-5.92,17.67-4.07,3.89-11.09,5.83-21.07,5.83h-48.05v-14.45h40.91c3.94,0,6.46-.84,7.57-2.52,1.11-1.69,1.65-4.03,1.65-7.05-.11-4.06-1.3-6.88-3.56-8.44-2.27-1.57-6.07-2.35-11.41-2.35-4.76,0-8.47.64-11.14,1.92-2.67,1.27-4.53,3.71-5.57,7.31-1.04,3.6-1.56,8.82-1.56,15.67,0,7.19.63,12.74,1.91,16.62,1.27,3.89,3.45,6.59,6.53,8.09,3.07,1.51,7.35,2.26,12.8,2.26,3.94,0,8.85-.14,14.71-.43,5.86-.29,11.75-.78,17.67-1.48l2.44,15.84c-3.37,1.63-7.2,2.91-11.49,3.83-4.3.93-8.71,1.6-13.23,2-4.53.41-8.88.61-13.06.61-10.91,0-19.7-1.6-26.38-4.78-6.67-3.19-11.49-8.1-14.44-14.71-2.96-6.62-4.44-15.09-4.44-25.42,0-11.26,1.51-20.2,4.52-26.81,3.02-6.62,7.77-11.38,14.28-14.28,6.5-2.9,15.03-4.36,25.59-4.36Z"/>
  </g>
  <g>
    <path class="st0" d="M171.54,700.41l-19.28-1.24c-11.85-.75-23.09,3.94-30.91,12.88-7.79,8.95-10.91,20.76-8.52,32.39l16.89,82.56c5.89,28.78,32.44,49.15,61.77,47.4,9.44-.57,18.35-3.34,26.17-7.85,13.34-7.7,23.48-20.48,27.66-36.08l8.2-30.62,9.95-5.74-12.5-21.64-18.91,10.92-10.88,40.62c-3.83,14.32-16.33,24.57-31.19,25.45-16.99,1.02-32.38-10.78-35.78-27.45l-16.89-82.56c-.81-3.94.25-7.94,2.88-10.97,2.62-3.04,6.44-4.62,10.46-4.36l19.29,1.24c7.47.48,14.84-1.25,21.31-4.99l22.23-12.83-12.5-21.64-22.23,12.83c-2.19,1.27-4.69,1.85-7.22,1.69Z"/>
    <path d="M459.82,636.41l-63.05-55.91c-8.88-7.88-20.66-11.09-32.32-8.81-11.63,2.3-21.33,9.69-26.61,20.33l-8.56,17.31c-1.13,2.28-2.88,4.15-5.07,5.42l-22.23,12.83,12.5,21.64,22.23-12.83c6.47-3.73,11.65-9.25,14.98-15.97l8.56-17.32c1.78-3.59,5.03-6.1,9.01-6.88,3.94-.77,7.93.31,10.94,2.98l63.05,55.91c12.73,11.29,15.26,30.51,5.88,44.72-8.17,12.41-23.31,18.13-37.63,14.29l-40.62-10.88-18.91,10.92,12.5,21.64,9.95-5.74,30.62,8.2c15.6,4.18,31.74,1.79,45.08-5.91,7.81-4.51,14.67-10.85,19.88-18.74,16.18-24.52,11.81-57.7-10.17-77.19Z"/>
    <polygon class="st0" points="216.46 679.37 229.08 672.08 289.48 776.68 276.86 783.97 283.1 794.79 306.55 781.26 233.66 655.01 210.21 668.54 216.46 679.37"/>
    <polygon points="331.8 766.68 355.25 753.14 349 742.32 336.37 749.61 275.98 645 288.6 637.71 282.36 626.89 258.91 640.43 331.8 766.68"/>
    <g>
      <circle cx="378.76" cy="637.71" r="7.66" transform="translate(-268.11 274.82) rotate(-30)"/>
      <circle cx="394.08" cy="664.24" r="7.66" transform="translate(-279.32 286.03) rotate(-30)"/>
      <path d="M369.33,652c-3.66,2.12-4.92,6.8-2.8,10.46,2.12,3.66,6.8,4.92,10.46,2.8,3.66-2.11,4.92-6.8,2.8-10.46-2.12-3.66-6.8-4.92-10.46-2.8Z"/>
      <circle cx="399.68" cy="643.32" r="7.66" transform="translate(-268.11 286.03) rotate(-30)"/>
    </g>
    <polygon class="st0" points="198.43 786.04 189.6 770.73 204.9 761.9 199.6 752.72 184.3 761.55 175.46 746.25 166.28 751.55 175.11 766.85 159.81 775.69 165.11 784.87 180.41 776.04 189.25 791.34 198.43 786.04"/>
  </g>
</svg>