<?xml version="1.0" encoding="UTF-8"?>
<svg id="Layer_1" xmlns="http://www.w3.org/2000/svg" version="1.1" viewBox="0 0 1500 1500">
  <!-- Generator: Adobe Illustrator 29.1.0, SVG Export Plug-In . SVG Version: 2.1.0 Build 142)  -->
  <defs>
    <style>
      .st0 {
        fill: #0094ab;
      }
    </style>
  </defs>
  <path class="st0" d="M566.98,923.89l-31.21,116.47c-10.99,41.06-46.81,70.45-89.43,72.96-48.71,2.91-92.84-30.92-102.61-78.72l-48.44-236.73c-2.32-11.29.7-22.76,8.27-31.44,7.52-8.71,18.48-13.25,29.99-12.49l55.31,3.57c21.42,1.37,42.56-3.59,61.1-14.3l63.74-36.8-35.83-62.06-63.74,36.8c-6.28,3.63-13.46,5.29-20.69,4.84l-55.28-3.56c-33.97-2.15-66.2,11.31-88.63,36.92-22.35,25.67-31.28,59.51-24.44,92.87l48.44,236.73c16.88,82.51,93.01,140.94,177.11,135.91,27.07-1.63,52.63-9.57,75.03-22.5,38.24-22.08,67.32-58.72,79.31-103.46l23.52-87.79,28.52-16.47-35.83-62.06-54.22,31.3Z"/>
  <path d="M1220.06,502.47l-180.78-160.32c-25.46-22.58-59.24-31.79-92.67-25.26-33.34,6.59-61.15,27.79-76.29,58.3l-24.55,49.62c-3.23,6.53-8.26,11.91-14.55,15.54l-63.74,36.8,35.83,62.06,63.74-36.8c18.54-10.71,33.41-26.53,42.94-45.8l24.56-49.65c5.1-10.3,14.42-17.48,25.83-19.74,11.3-2.21,22.74.9,31.36,8.56l180.78,160.32c36.51,32.36,43.75,87.49,16.87,128.22-23.42,35.58-66.85,51.98-107.9,40.97l-116.47-31.21-54.22,31.3,35.83,62.06,28.52-16.47,87.79,23.52c44.74,11.99,91.01,5.12,129.25-16.96,22.4-12.94,42.06-31.1,57-53.73,46.4-70.32,33.87-165.46-29.15-221.33Z"/>
  <polygon class="st0" points="504.33 594.61 522.24 625.63 558.44 604.73 731.62 904.69 695.42 925.59 713.33 956.62 780.57 917.8 571.56 555.79 504.33 594.61"/>
  <polygon points="866.08 827.05 692.91 527.1 729.11 506.2 711.19 475.17 643.96 513.99 852.97 876 920.2 837.18 902.28 806.15 866.08 827.05"/>
  <path d="M998.6,525.22c10.5-6.06,14.1-19.49,8.04-29.99-6.06-10.5-19.49-14.1-30-8.04-10.5,6.06-14.1,19.49-8.04,29.99,6.06,10.5,19.49,14.1,29.99,8.04Z"/>
  <path d="M1012.52,593.25c6.06,10.5,19.49,14.1,30,8.04,10.5-6.06,14.1-19.49,8.04-29.99-6.06-10.5-19.49-14.1-29.99-8.04-10.5,6.06-14.1,19.49-8.04,29.99Z"/>
  <path d="M952.53,577.17c6.07,10.5,19.49,14.11,30,8.04,10.5-6.06,14.1-19.49,8.03-30-6.06-10.5-19.5-14.1-30-8.04-10.5,6.07-14.1,19.49-8.04,30Z"/>
  <path d="M1058.6,541.3c10.5-6.06,14.1-19.49,8.04-30-6.07-10.5-19.5-14.1-30-8.04-10.5,6.06-14.1,19.49-8.04,30,6.07,10.5,19.5,14.1,30,8.04Z"/>
  <polygon class="st0" points="473.9 835.96 430.01 861.3 404.68 817.41 378.35 832.61 403.68 876.5 359.8 901.83 375 928.16 418.88 902.82 444.22 946.71 470.55 931.51 445.22 887.62 489.1 862.29 473.9 835.96"/>
</svg>